<svg xmlns="http://www.w3.org/2000/svg" width="24" height="24" fill="none" viewBox="0 0 24 24"><g clip-path="url(#a)"><path fill="url(#b)" d="M0 12a12 12 0 1 0 24 0 12 12 0 0 0-24 0Z"/><path fill="#fff" fill-rule="evenodd" d="M9.34 6.66c.6-.26 1.26-.4 1.91-.4l-.63-.65s2.55-.44 5.82 1.6c0 0 .04.1 0 .4 0 0 1.55.68 1.67 2 .13 1.34-.68 2.1-1.34 2.2 0 0 .34-.54-.19-.84a.68.68 0 0 0-.37-.08c-1.01 0-1.13 1.18-1.13 1.18.04 1.86 3.03 1.86 3.78 1.86-.64 2.47-3.5 4.5-6.35 4.5-2.66 0-6.94-1.9-6.94-6.5a6.37 6.37 0 0 1 3.77-5.27Zm6.14.8c-.16.18-.3.25-.34.27h-.02c-.92-.2-1.25-.68-1.25-.68.78-.02 1.55.17 2.23.56 0 0-.31-.1-.62-.14Z" clip-rule="evenodd"/><path fill="url(#c)" d="M12.21 12.57c2.64 0 4.78-1.7 4.78-3.78C16.99 6.7 14.85 5 12.2 5 9.58 5 7.44 6.7 7.44 8.79c0 2.08 2.14 3.78 4.77 3.78Z"/></g><defs><linearGradient id="b" x1="12" x2="12" y1="0" y2="24" gradientUnits="userSpaceOnUse"><stop stop-color="#02E8F7"/><stop offset="1" stop-color="#03CCFD"/></linearGradient><linearGradient id="c" x1="12.21" x2="12.21" y1="5.01" y2="12.57" gradientUnits="userSpaceOnUse"><stop stop-color="#2CD3E1" stop-opacity="0"/><stop offset="1" stop-color="#01BBED"/></linearGradient><clipPath id="a"><path fill="#fff" d="M0 0h24v24H0z"/></clipPath></defs></svg>