<svg xmlns="http://www.w3.org/2000/svg" width="24" height="24" fill="none" viewBox="0 0 24 24"><g clip-path="url(#a)"><path fill="#FBC02D" d="M12 24a12 12 0 1 0 0-24 12 12 0 0 0 0 24Z"/><path fill="#fff" fill-rule="evenodd" d="M9.94 10.96h3.23v1.71H9.94v3.62h2.04c.8 0 1.47-.11 1.98-.33a2.9 2.9 0 0 0 1.8-2.27 8.55 8.55 0 0 0 0-3.38 2.9 2.9 0 0 0-1.8-2.27 5.1 5.1 0 0 0-1.98-.33H9.94v3.25Zm-2.08 1.71H6.75v-1.71h1.11V6h4.91c.91 0 1.7.16 2.36.47.66.31 1.2.74 1.63 1.29.42.54.73 1.18.93 1.9a8.82 8.82 0 0 1 .01 4.68 5.5 5.5 0 0 1-.95 1.9c-.41.55-.96.98-1.62 1.29-.66.31-1.45.47-2.36.47h-4.9v-5.33Z" clip-rule="evenodd"/></g><defs><clipPath id="a"><path fill="#fff" d="M0 0h24v24H0z"/></clipPath></defs></svg>